<svg width="1946" height="974" viewBox="0 0 1946 974" fill="none" xmlns="http://www.w3.org/2000/svg">
<path d="M709 663V555H670.92V546.68H756.68V555H718.6V663H709ZM776.576 663V546.68H846.176V555H786.176V599.64H841.536V607.96H786.176V654.68H847.776V663H776.576ZM856.916 663L903.156 546.68H913.076L959.316 663H948.756L936.436 631H879.636L867.316 663H856.916ZM882.836 622.68H933.236L908.116 557.08L882.836 622.68ZM975.014 663V546.68H984.454L1031.49 641.56L1078.37 546.68H1087.97V663H1078.69V565.72L1035.97 651.8H1027.01L984.294 565.72V663H975.014Z" fill="black"/>
<path d="M531.84 406.44V395.8H595.12V488.76C586.907 492.307 576.827 495.293 564.88 497.72C553.12 499.96 541.453 501.08 529.88 501.08C466.227 501.08 434.4 465.52 434.4 394.4C434.4 361.547 442.893 336.16 459.88 318.24C476.867 300.32 501.04 291.36 532.4 291.36C541.92 291.36 550.973 292.293 559.56 294.16C568.147 295.84 575.707 298.453 582.24 302V316.84C573.093 312.92 564.693 310.213 557.04 308.72C549.573 307.04 541.453 306.2 532.68 306.2C506.173 306.2 486.013 313.76 472.2 328.88C458.387 344 451.48 365.84 451.48 394.4C451.48 455.627 477.707 486.24 530.16 486.24C546.587 486.24 562.92 483.813 579.16 478.96V412.6L531.84 406.44ZM955.797 498L1031.12 294.44H1086L1161.88 498H1099.72L1089.36 462.72H1025.8L1015.72 498H955.797ZM1038.12 419.6H1076.76L1057.16 352.68L1038.12 419.6ZM1240.57 498V309H1173.93V294.44H1324.01V309H1257.37V498H1240.57Z" fill="black"/>
<path fill-rule="evenodd" clip-rule="evenodd" d="M731.066 500.857C702.921 501.588 675.687 490.908 655.523 471.252C635.37 451.598 624 424.62 624 396.445C624 368.283 635.37 341.305 655.523 321.64C675.687 301.984 702.921 291.304 731.066 292.035H852.35C879.551 292.745 905.396 304.052 924.384 323.558C943.372 343.065 954 369.216 954 396.445C954 423.676 943.372 449.838 924.384 469.334C905.396 488.841 879.551 500.147 852.35 500.857H731.066ZM849.605 464.1C867.895 464.684 885.644 457.827 898.784 445.09C911.923 432.356 919.35 414.83 919.35 396.521C919.35 378.21 911.923 360.686 898.784 347.939C885.644 335.202 867.895 328.347 849.605 328.94H733.735C716.198 329.502 699.573 336.877 687.376 349.486C675.169 362.095 668.345 378.963 668.345 396.521C668.345 414.077 675.169 430.934 687.376 443.554C699.573 456.163 716.198 463.527 733.735 464.1H849.605Z" fill="#C74634"/>
</svg>
